{"title":"Linhas.De.Wellington.2012.BRRip.XviD.AC3","uid":12277401,"size":2391559291,"categoryP":"video","categoryS":"movies","magnet":"?xt=urn:btih:61ce2acfcc2d4ec78b0d4188fec77d55ae3cfbd2&amp;dn=Linhas.De.Wellington.2012.BRRip.XviD.AC3&amp;tr=udp%3A%2F%2Ftracker.openbittorrent.com%3A80&amp;tr=udp%3A%2F%2Fopen.demonii.com%3A1337&amp;tr=udp%3A%2F%2Ftracker.coppersurfer.tk%3A6969&amp;tr=udp%3A%2F%2Fexodus.desync.com%3A6969","seeders":0,"leechers":0,"uploader":"nicukent","files":3,"time":1440371399,"description":" &lt;a href=&quot;http://i.imgur.com/qsytKON.jpg&quot; rel=&quot;nofollow&quot; target=&quot;_NEW&quot;&gt;http://i.imgur.com/qsytKON.jpg&lt;/a&gt;\n\n   General\n      Complete name : Linhas.De.Wellington.2012.BRRip.XviD.AC3.avi\n      Format : AVI\n      Format/Info : Audio Video Interleave\n      Format profile : OpenDML\n      File size : 2.16 GiB\n      Duration : 2h 31mn\n      Overall bit rate : 2 041 Kbps\n      Source: BDRip 720\n\n   Video #0\n      ID : 0\n      Format : MPEG-4 Visual\n      Format profile : AdvancedSimple@L5\n      Format settings, BVOP : Yes\n      Format settings, QPel : No\n      Format settings, GMC : No warppoints\n      Format settings, Matrix : Custom\n      Codec ID : XVID\n      Codec ID/Hint : XviD\n      Duration : 2h 31mn\n      Bit rate : 1 581 Kbps\n      Width : 720 pixels\n      Height : 304 pixels\n      Display aspect ratio : 2.35:1\n      Frame rate : 24.000 fps\n      Resolution : 24 bits\n      Colorimetry : 4:2:0\n      Scan type : Progressive\n      Bits/(Pixel*Frame) : 0.301\n      Stream size : 1.67 GiB (77%)\n      Writing library : XviD 73\n\n   Audio #1\n      ID : 1\n      Format : AC-3\n      Format/Info : Audio Coding 3\n      Codec ID : 2000\n      Duration : 2h 31mn\n      Bit rate mode : Constant\n      Bit rate : 448 Kbps\n      Channel(s) : 6 channels\n      Channel positions : Front: L C R, Surround: L R, LFE\n      Sampling rate : 48.0 KHz\n      Stream size : 486 MiB (22%)\n      Alignment : Split accross interleaves\n      Interleave, duration : 42 ms (1.00 video frame)\n      Interleave, preload duration : 500 ms\n      Language: Portuguese, English, French\n\n   For more visit...: http://www.scenexpress.org\n\n &lt;a href=&quot;\nhttp://i.imgur.com/LqBT4ul.png&quot; rel=&quot;nofollow&quot; target=&quot;_NEW&quot;&gt;\nhttp://i.imgur.com/LqBT4ul.png&lt;/a&gt; &lt;a href=&quot;\nhttp://i.imgur.com/c8GzdBC.png&quot; rel=&quot;nofollow&quot; target=&quot;_NEW&quot;&gt;\nhttp://i.imgur.com/c8GzdBC.png&lt;/a&gt; &lt;a href=&quot;\nhttp://i.imgur.com/Sl5k6U3.png&quot; rel=&quot;nofollow&quot; target=&quot;_NEW&quot;&gt;\nhttp://i.imgur.com/Sl5k6U3.png&lt;/a&gt; &lt;a href=&quot;\nhttp://i.imgur.com/DP6tbWg.png&quot; rel=&quot;nofollow&quot; target=&quot;_NEW&quot;&gt;\nhttp://i.imgur.com/DP6tbWg.png&lt;/a&gt; &lt;a href=&quot;\nhttp://i.imgur.com/A7Io4b3.png&quot; rel=&quot;nofollow&quot; target=&quot;_NEW&quot;&gt;\nhttp://i.imgur.com/A7Io4b3.png&lt;/a&gt; &lt;a href=&quot;\nhttp://i.imgur.com/rh4MuSk.png&quot; rel=&quot;nofollow&quot; target=&quot;_NEW&quot;&gt;\nhttp://i.imgur.com/rh4MuSk.png&lt;/a&gt;","torrent":{"xt":"urn:btih:61ce2acfcc2d4ec78b0d4188fec77d55ae3cfbd2","amp;dn":"Linhas.De.Wellington.2012.BRRip.XviD.AC3","amp;tr":["udp%3A%2F%2Ftracker.openbittorrent.com%3A80","udp%3A%2F%2Fopen.demonii.com%3A1337","udp%3A%2F%2Ftracker.coppersurfer.tk%3A6969","udp%3A%2F%2Fexodus.desync.com%3A6969"],"infoHash":"61ce2acfcc2d4ec78b0d4188fec77d55ae3cfbd2","infoHashBuffer":{"type":"Buffer","data":[97,206,42,207,204,45,78,199,139,13,65,136,254,199,125,85,174,60,251,210]},"announce":[],"urlList":[]}}